<svg width="152" height="130" viewBox="0 0 152 130" fill="none" xmlns="http://www.w3.org/2000/svg">
<g clip-path="url(#clip0_2_12)">
<path d="M80 125.75C79.5332 125.379 79.1695 124.895 78.9436 124.343C78.7177 123.792 78.6373 123.192 78.71 122.6V101.9H75.81V122.57C75.7403 123.958 76.0442 125.339 76.69 126.57C77.4732 127.744 78.6452 128.604 80 129C81.2424 129.305 82.5221 129.43 83.8 129.37H92.2V126.54H83.76C82.4588 126.615 81.1611 126.342 80 125.75V125.75ZM104.91 108.38H95.05V111.13H105.45C107.6 111.13 108.63 111.98 108.78 113.87C108.78 114.02 108.78 115.23 108.78 115.51V116H99.88C99.0991 115.963 98.319 116.087 97.5879 116.364C96.8569 116.641 96.1905 117.065 95.63 117.61C95.094 118.178 94.6778 118.847 94.4063 119.579C94.1348 120.311 94.0137 121.09 94.05 121.87V123.63C94.0056 124.987 94.4732 126.312 95.36 127.34C95.9271 128.006 96.6395 128.532 97.4422 128.879C98.245 129.226 99.1166 129.383 99.99 129.34H105.79C106.577 129.388 107.365 129.265 108.1 128.98C108.835 128.695 109.5 128.255 110.05 127.69C111.073 126.467 111.598 124.903 111.52 123.31V114.61C111.52 110.53 109.22 108.38 104.87 108.38H104.91ZM108.84 123.6C108.84 125.67 107.93 126.6 105.9 126.6H99.92C99.7587 126.592 99.5982 126.572 99.44 126.54C97.59 126.22 96.76 125.28 96.76 123.54V121.8C96.7171 121.433 96.7501 121.061 96.8572 120.708C96.9642 120.354 97.1429 120.027 97.3821 119.745C97.6214 119.464 97.916 119.234 98.2477 119.072C98.5794 118.909 98.941 118.817 99.31 118.8L99.81 118.73H108.81L108.84 123.6ZM126.17 111.6H117.8V101.91H115V123.09C114.962 123.891 115.092 124.691 115.379 125.44C115.666 126.189 116.106 126.87 116.67 127.44C117.867 128.528 119.404 129.167 121.02 129.25C121.34 129.25 121.6 129.25 121.79 129.25H126.09C126.997 129.278 127.904 129.194 128.79 129C129.747 128.736 130.603 128.193 131.25 127.44C132.263 126.148 132.762 124.528 132.65 122.89V117.89C132.69 113.83 130.43 111.63 126.13 111.63L126.17 111.6ZM130 122.79C130.138 123.317 130.136 123.871 129.994 124.397C129.852 124.923 129.574 125.403 129.188 125.788C128.803 126.174 128.323 126.452 127.797 126.594C127.271 126.736 126.717 126.738 126.19 126.6H122.19C119.19 126.6 117.83 125.51 117.83 123.05V114.46H126.28C127.068 114.406 127.855 114.576 128.55 114.95C129.057 115.29 129.463 115.76 129.727 116.311C129.99 116.861 130.102 117.472 130.05 118.08L130 122.79ZM146.09 117.29H141.49C140.568 117.364 139.644 117.18 138.82 116.76C138.502 116.511 138.254 116.184 138.1 115.811C137.945 115.438 137.89 115.031 137.94 114.63V113.42C137.941 113.057 138.033 112.701 138.208 112.383C138.383 112.065 138.634 111.796 138.94 111.6C139.668 111.207 140.497 111.043 141.32 111.13H150.61V108.38H141.29C139.826 108.321 138.381 108.735 137.17 109.56C136.553 110 136.056 110.587 135.724 111.268C135.392 111.95 135.236 112.703 135.27 113.46V114.67C135.27 117.15 136.35 120.12 141.51 120.12H146C146.333 120.077 146.671 120.107 146.991 120.209C147.31 120.311 147.604 120.482 147.85 120.71C148.242 121.328 148.443 122.048 148.43 122.78L148.5 123.67C148.5 123.73 148.5 123.91 148.5 124.2V124.34C148.39 125.9 147.56 126.6 145.8 126.6H136.2V129.32H145.68C146.66 129.407 147.645 129.212 148.517 128.756C149.389 128.301 150.112 127.604 150.6 126.75C151.053 125.789 151.262 124.731 151.21 123.67V122.67C151.21 119.17 149.43 117.29 146.07 117.29H146.09Z" fill="#003863"/>
<path d="M17.47 125.93L15.87 123.38C15.8359 123.292 15.7821 123.213 15.7128 123.149C15.6435 123.085 15.5604 123.037 15.47 123.01C15.3792 122.997 15.2865 123.005 15.1995 123.035C15.1126 123.064 15.0339 123.114 14.97 123.18C13.453 124.384 11.5666 125.027 9.63 125C6.39 125 4.53 123.07 4.53 119.72V111.27C4.53 108 6.43 106 9.6 106C11.4041 105.997 13.1598 106.583 14.6 107.67C14.6806 107.73 14.773 107.773 14.8712 107.795C14.9694 107.818 15.0712 107.819 15.17 107.8C15.2474 107.771 15.3182 107.727 15.3783 107.67C15.4384 107.614 15.4866 107.546 15.52 107.47L17.13 104.9C17.1892 104.826 17.2324 104.74 17.257 104.649C17.2817 104.557 17.2871 104.461 17.273 104.367C17.2589 104.273 17.2256 104.183 17.1752 104.103C17.1248 104.023 17.0584 103.954 16.98 103.9C14.8573 102.286 12.2664 101.409 9.6 101.4C5.22 101.4 0 103.88 0 111.12V119.72C0 126.92 5.05 129.57 9.67 129.57C12.4785 129.665 15.2236 128.722 17.38 126.92C17.5133 126.794 17.596 126.624 17.6126 126.442C17.6292 126.26 17.5784 126.078 17.47 125.93V125.93Z" fill="#003863"/>
<path d="M63.25 125.52C64.3429 125.53 65.4323 125.395 66.49 125.12C66.6256 125.083 66.7451 125.002 66.83 124.89C66.915 124.778 66.9607 124.641 66.96 124.5V114.44C66.9596 114.276 66.9148 114.115 66.8303 113.974C66.7458 113.833 66.6248 113.718 66.48 113.64C65.4511 113.134 64.3164 112.88 63.17 112.9C60.33 112.9 58.71 114.21 58.71 117.23V120.87C58.71 124.29 60.41 125.52 63.25 125.52V125.52ZM67 102.39C67 102.06 67.27 101.92 67.59 101.92H70.93C71.26 101.92 71.53 101.99 71.53 102.45V127.72C71.5243 127.801 71.4928 127.878 71.44 127.94C71.3438 128.037 71.2227 128.107 71.09 128.14C68.5487 129.057 65.8715 129.54 63.17 129.57C57.96 129.57 54.17 126.87 54.17 120.83V117.23C54.17 112.06 57.71 108.81 62.69 108.81C64.1544 108.807 65.6039 109.103 66.95 109.68L67 102.39Z" fill="#003863"/>
<path d="M31.23 113.72C31.1265 113.816 30.9909 113.869 30.85 113.869C30.7091 113.869 30.5735 113.816 30.47 113.72C29.6952 113.141 28.747 112.841 27.78 112.87C26.25 112.87 24.57 114.01 24.57 116.54V128.45C24.57 128.528 24.5544 128.606 24.5242 128.678C24.4939 128.75 24.4495 128.816 24.3937 128.871C24.3378 128.926 24.2716 128.969 24.1989 128.998C24.1261 129.027 24.0483 129.041 23.97 129.04H20.61C20.4535 129.04 20.3035 128.978 20.1928 128.867C20.0822 128.757 20.02 128.606 20.02 128.45V109.6C20.0226 109.444 20.0856 109.296 20.1957 109.186C20.3058 109.076 20.4543 109.013 20.61 109.01H23.86C24.0165 109.01 24.1666 109.072 24.2772 109.183C24.3878 109.293 24.45 109.444 24.45 109.6V110.93C25.0885 110.244 25.8629 109.699 26.7237 109.329C27.5845 108.959 28.513 108.772 29.45 108.78C30.9573 108.732 32.4255 109.265 33.55 110.27C33.6234 110.331 33.6825 110.407 33.7231 110.494C33.7636 110.58 33.7847 110.675 33.7847 110.77C33.7847 110.865 33.7636 110.96 33.7231 111.046C33.6825 111.133 33.6234 111.209 33.55 111.27L31.23 113.72Z" fill="#003863"/>
<path d="M51.41 117.78C51.41 114.78 50.7 112.49 49.29 111.01C47.88 109.53 45.78 108.79 43.04 108.79C40.04 108.79 37.84 109.69 36.44 111.46C35.04 113.23 34.31 116.07 34.31 119.72C34.31 123.21 34.99 125.72 36.31 127.25C37.63 128.78 39.87 129.57 42.9 129.57C45.437 129.53 47.9608 129.195 50.42 128.57C50.5135 128.546 50.5964 128.492 50.656 128.416C50.7156 128.34 50.7487 128.247 50.75 128.15L50.69 125.48C50.6817 125.382 50.6392 125.29 50.57 125.22C50.536 125.19 50.4963 125.168 50.4533 125.154C50.4103 125.14 50.3649 125.136 50.32 125.14C49.32 125.23 47.88 125.34 47.07 125.38C46.55 125.38 46.07 125.44 45.54 125.48C44.9 125.48 44.29 125.57 43.79 125.57C42.896 125.602 42.0024 125.498 41.14 125.26C40.5328 125.088 40.0163 124.686 39.7 124.14C39.4415 123.527 39.3253 122.864 39.36 122.2C39.36 121.57 39.44 121.38 39.73 121.38H50.57C50.7628 121.38 50.9481 121.305 51.0863 121.17C51.2245 121.036 51.3048 120.853 51.31 120.66L51.41 117.78ZM46.41 117.45C46.3714 117.494 46.3237 117.53 46.2702 117.554C46.2167 117.578 46.1587 117.59 46.1 117.59H39.73C39.6752 117.59 39.6211 117.578 39.5712 117.556C39.5212 117.533 39.4765 117.501 39.44 117.46C39.4 117.419 39.3687 117.371 39.348 117.317C39.3274 117.264 39.3179 117.207 39.32 117.15C39.2721 116.017 39.5722 114.897 40.18 113.94C40.5444 113.572 40.9873 113.291 41.4756 113.117C41.9639 112.944 42.485 112.884 43 112.94C43.4998 112.885 44.0056 112.947 44.4776 113.12C44.9496 113.294 45.3749 113.574 45.72 113.94C46.2956 114.915 46.5639 116.04 46.49 117.17C46.4802 117.276 46.4343 117.374 46.36 117.45H46.41Z" fill="#003863"/>
<path fill-rule="evenodd" clip-rule="evenodd" d="M52.21 57.88C52.02 64.56 50.34 66.73 54.33 71.88C60.61 79.96 71.02 80.08 80.33 78.37C96.76 75.37 95.04 54.65 86.74 43.54C82.02 48.9 74.82 47.38 70.74 45.48C66.66 43.58 66.24 39.16 59.16 40.68C56.02 44.68 53.6 47.59 53.39 54.84L52.21 57.88ZM74.37 8.07H79.19V12.89H74.37V8.07ZM69.05 3.49V0H72.55V3.49H69.05ZM69.05 3.49H64.48V8.07H69.05V3.49V3.49ZM72.55 22.33V27.15H67.73V22.33H72.55ZM72.55 22.33H76.19V18.69H72.55V22.33V22.33ZM73.64 32.67H78.64V37.67H73.64V32.67Z" fill="#20C4F4"/>
<path d="M85.68 57.76C85.7107 56.9562 85.5615 56.1556 85.2431 55.4168C84.9248 54.6781 84.4454 54.0198 83.84 53.49C83.6304 53.3253 83.4099 53.1749 83.18 53.04C83.0185 52.9467 82.8515 52.8633 82.68 52.79C82.5083 52.708 82.3312 52.6379 82.15 52.58C81.3565 52.319 80.5253 52.1906 79.69 52.2H66.69C63.36 52.2 60.63 53.85 60.63 57.97V60.35C60.63 64.05 63.21 65.79 66.32 65.79C67.3211 65.7811 68.3115 65.5843 69.24 65.21C69.32 67.86 68.17 68.86 66.24 68.86C65.0107 68.8855 63.8078 68.5021 62.82 67.77C62.7836 67.7308 62.7376 67.7017 62.6866 67.6856C62.6356 67.6695 62.5812 67.6668 62.5289 67.6779C62.4765 67.6889 62.4279 67.7134 62.3878 67.7488C62.3477 67.7842 62.3175 67.8294 62.3 67.88L61.3 69.49C61.17 69.72 61.17 69.88 61.37 70.01C62.8395 71.1386 64.6586 71.7155 66.51 71.64C70.26 71.64 72.23 69.32 72.23 65.44V55.06H80C80.7064 55.0627 81.383 55.3451 81.8815 55.8456C82.3801 56.346 82.66 57.0236 82.66 57.73V61C82.6697 61.5269 82.5278 62.0454 82.2513 62.4939C81.9747 62.9424 81.5751 63.3021 81.1 63.53C80.6706 63.7067 80.2051 63.7777 79.7425 63.737C79.28 63.6963 78.8339 63.5452 78.442 63.2963C78.05 63.0474 77.7235 62.708 77.49 62.3066C77.2565 61.9053 77.1227 61.4538 77.1 60.99C77.1 60.99 77.1 58.05 77.1 57.1C77.1 56.94 76.84 56.88 76.7 56.95L74.25 58.22C74.2106 58.239 74.1774 58.2689 74.1544 58.3061C74.1314 58.3433 74.1195 58.3863 74.12 58.43V61.19C74.1418 62.4172 74.5882 63.599 75.3831 64.5343C76.178 65.4696 77.2723 66.1006 78.48 66.32C78.9988 66.4085 79.5238 66.4553 80.05 66.46C81.4069 66.4834 82.7257 66.0107 83.7586 65.1305C84.7916 64.2504 85.4677 63.0234 85.66 61.68C85.6705 61.5102 85.6705 61.3398 85.66 61.17L85.68 57.76ZM69.17 62.47C68.3778 62.9334 67.4663 63.1526 66.55 63.1C64.95 63.1 63.66 62.44 63.66 60.37V57.78C63.66 55.52 64.9 54.89 66.66 54.89C67.4892 54.8781 68.3163 54.9756 69.12 55.18L69.17 62.47Z" fill="white"/>
<path d="M119.67 48.57C115.82 46.34 114.59 43.42 114.59 37.88V23.59C114.59 19.05 112.8 11.39 100.8 11.08H88.73C87.8077 11.1049 86.9084 11.3733 86.1233 11.858C85.3383 12.3428 84.6954 13.0266 84.26 13.84C80.8 19.32 81.12 33.57 87.09 46.06C90.6 53.37 93 63.29 89.32 69.17C86.7 73.33 81.08 77.36 72.62 77.36C64.16 77.36 58.54 73.36 55.92 69.17C52.22 63.29 54.64 53.37 58.14 46.06C64.14 33.57 64.43 19.32 60.98 13.84C60.5438 13.0272 59.9007 12.344 59.1159 11.8594C58.331 11.3748 57.4321 11.1059 56.51 11.08H44.41C32.41 11.39 30.62 19.08 30.62 23.59V37.88C30.62 43.42 29.39 46.34 25.54 48.57C23.74 49.57 22.84 50.41 24.64 51.49C29.23 54.24 30.64 57.15 30.64 63.07V77.46C30.64 81.66 31.95 84.83 34.54 86.88C36.67 88.57 40.48 89.54 44.29 89.77C44.72 89.77 45.65 90.06 45.79 89.22C45.86 88.78 46.06 86.34 46.08 85.72C46.08 84.23 46.25 84.27 44.77 84.17C42.37 84.01 39.3 83.33 38.1 82.38C36.9 81.43 36.38 79.85 36.38 77.46V63.07C36.38 58.67 35.23 55.18 32.96 52.7C32.1513 51.8242 31.2259 51.0637 30.21 50.44C34.27 47.84 36.38 43.59 36.38 37.88V22.59C36.38 19.35 37.38 16.01 44.56 15.82H56.09C57.72 17.89 60.25 30.82 54.09 43.65C52.09 47.88 45.44 62.28 51.67 72.17C55.41 78.11 62.03 82.42 72.59 82.42C83.15 82.42 89.78 77.94 93.53 72C99.75 62.11 93.46 48 91.44 43.78C85.31 30.99 87.52 17.89 89.15 15.78H100.67C107.88 15.97 108.85 19.31 108.85 22.55V37.88C108.85 43.59 110.96 47.88 115.02 50.44C114.004 51.0637 113.079 51.8242 112.27 52.7C110 55.18 108.85 58.7 108.85 63.07V77.46C108.85 79.85 108.29 81.46 107.13 82.38C105.97 83.3 102.86 84.01 100.46 84.17C98.98 84.27 99.04 84.39 99.09 85.88C99.09 86.5 99.34 88.82 99.41 89.26C99.54 90.1 100.51 89.8 100.94 89.77C104.75 89.54 108.56 88.57 110.69 86.88C113.28 84.88 114.59 81.66 114.59 77.46V63.07C114.59 57.15 115.98 54.24 120.59 51.49C122.37 50.41 121.47 49.61 119.67 48.57Z" fill="#003863"/>
</g>
<defs>
<clipPath id="clip0_2_12">
<rect width="151.21" height="129.57" fill="white"/>
</clipPath>
</defs>
</svg>
